SplineFontDB: 3.0
FontName: Jones-it-Bold
FullName: Jones* Bold
FamilyName: Jones*
Weight: Bold
Copyright: 
UComments: "2016-1-29: Created with FontForge (http://fontforge.org)"
Version: 002.000
ItalicAngle: 0
UnderlinePosition: -150
UnderlineWidth: 100
Ascent: 784
Descent: 216
InvalidEm: 0
LayerCount: 2
Layer: 0 0 "Back" 1
Layer: 1 0 "Fore" 0
XUID: [1021 31 -699969567 4970488]
FSType: 0
OS2Version: 2
OS2_WeightWidthSlopeOnly: 0
OS2_UseTypoMetrics: 0
CreationTime: 1454127431
ModificationTime: 1461639883
PfmFamily: 17
TTFWeight: 700
TTFWidth: 5
LineGap: 0
VLineGap: 0
OS2TypoAscent: 784
OS2TypoAOffset: 0
OS2TypoDescent: -216
OS2TypoDOffset: 0
OS2TypoLinegap: 200
OS2WinAscent: 850
OS2WinAOffset: 0
OS2WinDescent: 300
OS2WinDOffset: 0
HheadAscent: 850
HheadAOffset: 0
HheadDescent: -300
HheadDOffset: 0
OS2SubXSize: 650
OS2SubYSize: 600
OS2SubXOff: 0
OS2SubYOff: 75
OS2SupXSize: 650
OS2SupYSize: 600
OS2SupXOff: 0
OS2SupYOff: 350
OS2StrikeYSize: 50
OS2StrikeYPos: 314
OS2CapHeight: 700
OS2XHeight: 520
OS2Vendor: 'PfEd'
Lookup: 5 0 0 "lig" { "lig-1"  } ['calt' ('DFLT' <'dflt' > 'grek' <'dflt' > 'latn' <'dflt' > ) ]
Lookup: 1 0 0 "fi" { "fi-1"  } ['ss01' ('DFLT' <'dflt' > 'grek' <'dflt' > 'latn' <'dflt' > ) ]
Lookup: 258 0 0 "kern" { "kerning" [150,0,2] } ['kern' ('DFLT' <'dflt' > 'grek' <'dflt' > 'latn' <'dflt' > ) ]
MarkAttachClasses: 1
DEI: 91125
KernClass2: 13 10 "kerning"
 3 A L
 5 D O Q
 3 F P
 3 K X
 3 V W
 13 b e h m n o p
 15 a c g q r s u z
 14 d f i j l t fi
 3 k x
 3 v w
 3 R B
 3 T Y
 1 A
 7 C G O Q
 3 T Y
 3 V W
 15 a m n p r s u z
 11 c d e g o q
 18 b f h i j k l t fi
 5 v w y
 1 x

StartChar: E
Encoding: 69 69 0
Width: 670
VWidth: 0
Flags: HMW
AnchorPoint: "ced" 495 0 basechar 0
AnchorPoint: "dot" 365 760 basechar 0
LayerCount: 2
Fore
SplineSet
80 423 m 1
 560 423 l 1
 560 293 l 1
 80 293 l 1
 80 423 l 1
80 700 m 1
 610 700 l 1
 610 570 l 1
 80 570 l 1
 80 700 l 1
80 130 m 5
 610 130 l 5
 610 0 l 1
 80 0 l 1
 80 130 l 5
80 700 m 1
 220 700 l 1
 220 0 l 1
 80 0 l 1
 80 700 l 1
EndSplineSet
EndChar

StartChar: I
Encoding: 73 73 1
Width: 300
VWidth: 0
Flags: HMW
AnchorPoint: "ced" 145 0 basechar 0
AnchorPoint: "dot" 140 760 basechar 0
LayerCount: 2
Fore
SplineSet
80 700 m 1
 220 700 l 5
 220 0 l 5
 80 0 l 1
 80 700 l 1
EndSplineSet
EndChar

StartChar: F
Encoding: 70 70 2
Width: 665
VWidth: 0
Flags: HMW
AnchorPoint: "ced" 125 0 basechar 0
AnchorPoint: "dot" 365 760 basechar 0
LayerCount: 2
Fore
SplineSet
80 403 m 1
 560 403 l 1
 560 273 l 5
 80 273 l 5
 80 403 l 1
80 700 m 1
 610 700 l 1
 610 570 l 1
 80 570 l 1
 80 700 l 1
80 700 m 1
 220 700 l 1
 220 0 l 1
 80 0 l 1
 80 700 l 1
EndSplineSet
EndChar

StartChar: H
Encoding: 72 72 3
Width: 765
VWidth: 0
Flags: HMW
AnchorPoint: "ced" 610 0 basechar 0
AnchorPoint: "dot" 370 760 basechar 0
LayerCount: 2
Fore
SplineSet
540 700 m 1
 680 700 l 1
 680 0 l 1
 540 0 l 1
 540 700 l 1
85 423 m 5
 585 423 l 5
 585 293 l 1
 85 293 l 1
 85 423 l 5
85 700 m 1
 225 700 l 1
 225 0 l 1
 85 0 l 1
 85 700 l 1
EndSplineSet
EndChar

StartChar: L
Encoding: 76 76 4
Width: 655
VWidth: 0
Flags: HMW
AnchorPoint: "ced" 365 0 basechar 0
AnchorPoint: "dot" 385 760 basechar 0
LayerCount: 2
Fore
SplineSet
85 130 m 5
 610 130 l 5
 610 0 l 1
 85 0 l 1
 85 130 l 5
85 700 m 1
 225 700 l 1
 225 0 l 1
 85 0 l 1
 85 700 l 1
EndSplineSet
EndChar

StartChar: T
Encoding: 84 84 5
Width: 690
VWidth: 0
Flags: HMW
AnchorPoint: "ced" 347 0 basechar 0
AnchorPoint: "dot" 345 760 basechar 0
LayerCount: 2
Fore
SplineSet
35 700 m 1
 655 700 l 1
 655 570 l 1
 35 570 l 1
 35 700 l 1
275 700 m 5
 415 700 l 1
 415 0 l 1
 275 0 l 5
 275 700 l 5
EndSplineSet
EndChar

StartChar: O
Encoding: 79 79 7
Width: 850
VWidth: 0
Flags: HMW
AnchorPoint: "ced" 425 0 basechar 0
AnchorPoint: "dot" 425 760 basechar 0
LayerCount: 2
Fore
SplineSet
200 350 m 4
 200 219 289 120 425 120 c 4
 561 120 650 219 650 350 c 4
 650 481 561 580 425 580 c 4
 289 580 200 481 200 350 c 4
60 350 m 4
 60 559 220 710 425 710 c 4
 630 710 790 559 790 350 c 4
 790 141 630 -10 425 -10 c 4
 220 -10 60 141 60 350 c 4
EndSplineSet
EndChar

StartChar: C
Encoding: 67 67 8
Width: 732
VWidth: 0
Flags: HMW
AnchorPoint: "ced" 425 0 basechar 0
AnchorPoint: "dot" 425 760 basechar 0
LayerCount: 2
Fore
SplineSet
190 350 m 0
 190 214 274 120 425 120 c 0
 503 120 554 147 602 203 c 1
 692 113 l 1
 627 38 531 -10 425 -10 c 0
 210 -10 50 151 50 350 c 0
 50 549 210 710 425 710 c 0
 531 710 627 662 692 587 c 1
 603 498 l 1
 555 554 503 580 425 580 c 0
 274 580 190 486 190 350 c 0
EndSplineSet
EndChar

StartChar: A
Encoding: 65 65 9
Width: 800
VWidth: 0
Flags: HMW
AnchorPoint: "ced" 687 0 basechar 0
AnchorPoint: "ring" 400 700 basechar 0
AnchorPoint: "dot" 400 760 basechar 0
LayerCount: 2
Fore
SplineSet
330 700 m 1
 470 700 l 1
 460 690 l 1
 330 690 l 1
 330 700 l 1
184 280 m 1
 596 280 l 1
 596 155 l 1
 184 155 l 1
 184 280 l 1
630 0 m 1
 340 690 l 5
 470 700 l 1
 780 0 l 1
 630 0 l 1
330 700 m 1
 460 690 l 1
 170 0 l 1
 20 0 l 1
 330 700 l 1
EndSplineSet
EndChar

StartChar: V
Encoding: 86 86 10
Width: 780
VWidth: 0
Flags: HMW
AnchorPoint: "ced" 390 0 basechar 0
AnchorPoint: "dot" 389 760 basechar 0
LayerCount: 2
Fore
SplineSet
470 0 m 1
 310 0 l 1
 310 40 l 5
 470 40 l 5
 470 0 l 1
175 700 m 1
 430 40 l 5
 310 0 l 1
 20 700 l 1
 175 700 l 1
470 0 m 1
 350 40 l 5
 605 700 l 1
 760 700 l 1
 470 0 l 1
EndSplineSet
EndChar

StartChar: G
Encoding: 71 71 11
Width: 782
VWidth: 0
Flags: HMW
AnchorPoint: "ced" 425 0 basechar 0
AnchorPoint: "dot" 425 760 basechar 0
LayerCount: 2
Fore
SplineSet
722 400 m 1
 722 270 l 1
 425 270 l 1
 425 400 l 1
 722 400 l 1
722 113 m 1
 582 113 l 1
 582 400 l 1
 722 400 l 1
 722 113 l 1
200 350 m 0
 200 214 284 120 425 120 c 0
 503 120 584 147 637 208 c 1
 722 113 l 1
 657 38 541 -10 425 -10 c 0
 210 -10 60 141 60 350 c 4
 60 559 210 710 425 710 c 0
 551 710 647 662 712 587 c 1
 622 497 l 1
 574 553 503 580 425 580 c 0
 284 580 200 486 200 350 c 0
EndSplineSet
EndChar

StartChar: D
Encoding: 68 68 12
Width: 810
VWidth: 0
Flags: HMW
AnchorPoint: "ced" 345 0 basechar 0
AnchorPoint: "dot" 365 760 basechar 0
LayerCount: 2
Fore
SplineSet
90 700 m 1
 390 700 l 5
 390 570 l 5
 90 570 l 1
 90 700 l 1
90 130 m 1
 390 130 l 5
 390 0 l 5
 90 0 l 1
 90 130 l 1
90 700 m 1
 230 700 l 1
 230 0 l 1
 90 0 l 1
 90 700 l 1
390 130 m 5
 521 130 610 214 610 350 c 4
 610 486 521 570 390 570 c 5
 390 700 l 5
 595 700 750 549 750 350 c 4
 750 151 595 0 390 0 c 5
 390 130 l 5
EndSplineSet
EndChar

StartChar: U
Encoding: 85 85 13
Width: 760
VWidth: 0
Flags: HMW
AnchorPoint: "ced" 380 0 basechar 0
AnchorPoint: "dot" 380 760 basechar 0
LayerCount: 2
Fore
SplineSet
555 300 m 5
 555 700 l 1
 690 700 l 1
 690 280 l 1
 555 300 l 5
70 280 m 1
 70 700 l 1
 205 700 l 1
 205 300 l 5
 70 280 l 1
555 300 m 5
 690 280 l 1
 690 93 559 -10 380 -10 c 0
 201 -10 70 93 70 280 c 1
 205 300 l 5
 205 191 273 125 380 125 c 0
 487 125 555 191 555 300 c 5
EndSplineSet
EndChar

StartChar: o
Encoding: 111 111 14
Width: 650
VWidth: 0
Flags: HMW
AnchorPoint: "ced" 325 0 basechar 0
AnchorPoint: "dot" 325 673 basechar 0
LayerCount: 2
Fore
SplineSet
180 260 m 0
 180 176 233 115 325 115 c 4
 417 115 470 176 470 260 c 0
 470 344 417 405 325 405 c 4
 233 405 180 344 180 260 c 0
45 260 m 0
 45 409 166 530 325 530 c 0
 484 530 605 409 605 260 c 0
 605 111 484 -10 325 -10 c 0
 166 -10 45 111 45 260 c 0
EndSplineSet
EndChar

StartChar: B
Encoding: 66 66 15
Width: 695
VWidth: 0
Flags: HMW
AnchorPoint: "ced" 332 0 basechar 0
AnchorPoint: "dot" 313 760 basechar 0
LayerCount: 2
Fore
SplineSet
355 423 m 1
 438 423 483 432 483 497 c 4
 483 552 438 570 355 570 c 1
 385 700 l 1
 514 700 623 631 623 497 c 0
 623 364 504 330 375 330 c 1
 355 423 l 1
80 700 m 1
 220 700 l 1
 220 0 l 1
 80 0 l 1
 80 700 l 1
100 130 m 1
 375 130 l 1
 405 0 l 1
 100 0 l 1
 100 130 l 1
100 700 m 1
 385 700 l 1
 355 570 l 1
 100 570 l 1
 100 700 l 1
100 423 m 1
 415 423 l 1
 375 293 l 1
 100 293 l 1
 100 423 l 1
375 130 m 1
 458 130 510 145 510 215 c 0
 510 285 458 293 375 293 c 1
 395 385 l 1
 524 385 650 344 650 205 c 0
 650 66 544 0 405 0 c 1
 375 130 l 1
EndSplineSet
EndChar

StartChar: K
Encoding: 75 75 16
Width: 745
VWidth: 0
Flags: HMW
AnchorPoint: "ced" 655 0 basechar 0
AnchorPoint: "dot" 335 760 basechar 0
LayerCount: 2
Fore
SplineSet
256 403 m 1
 430 413 l 1
 740 0 l 1
 566 0 l 1
 256 403 l 1
525 700 m 1
 700 700 l 1
 220 177 l 5
 85 220 l 1
 525 700 l 1
80 700 m 1
 220 700 l 1
 220 0 l 1
 80 0 l 1
 80 700 l 1
EndSplineSet
EndChar

StartChar: R
Encoding: 82 82 17
Width: 718
VWidth: 0
Flags: HMW
AnchorPoint: "ced" 595 0 basechar 0
AnchorPoint: "dot" 345 760 basechar 0
LayerCount: 2
Fore
SplineSet
365 363 m 1
 443 363 493 392 493 467 c 0
 493 542 443 570 365 570 c 1
 385 700 l 1
 534 700 643 602 643 467 c 0
 643 333 534 233 385 233 c 1
 365 363 l 1
85 700 m 1
 225 700 l 1
 225 0 l 1
 85 0 l 1
 85 700 l 1
120 700 m 1
 385 700 l 1
 365 570 l 1
 120 570 l 1
 120 700 l 1
120 363 m 1
 365 363 l 1
 385 233 l 1
 120 233 l 1
 120 363 l 1
285 320 m 5
 448 320 l 1
 688 0 l 1
 525 0 l 5
 285 320 l 5
EndSplineSet
EndChar

StartChar: P
Encoding: 80 80 18
Width: 643
VWidth: 0
Flags: HMW
AnchorPoint: "ced" 145 0 basechar 0
AnchorPoint: "dot" 315 760 basechar 0
LayerCount: 2
Fore
SplineSet
335 363 m 1
 423 363 473 397 473 472 c 4
 473 547 423 570 335 570 c 1
 355 700 l 1
 504 700 613 607 613 472 c 0
 613 338 504 233 355 233 c 1
 335 363 l 1
85 700 m 1
 225 700 l 1
 225 0 l 1
 85 0 l 1
 85 700 l 1
100 700 m 1
 355 700 l 1
 335 570 l 1
 100 570 l 1
 100 700 l 1
100 363 m 1
 335 363 l 1
 355 233 l 1
 100 233 l 1
 100 363 l 1
EndSplineSet
EndChar

StartChar: Q
Encoding: 81 81 19
Width: 849
VWidth: 0
Flags: HMW
AnchorPoint: "ced" 425 0 basechar 0
AnchorPoint: "dot" 425 760 basechar 0
LayerCount: 2
Fore
SplineSet
200 350 m 0
 200 219 289 120 425 120 c 0
 561 120 650 219 650 350 c 0
 650 481 561 580 425 580 c 0
 289 580 200 481 200 350 c 0
60 350 m 0
 60 559 220 710 425 710 c 0
 630 710 790 559 790 350 c 0
 790 141 630 -10 425 -10 c 0
 220 -10 60 141 60 350 c 0
730 -49 m 1
 452 229 l 5
 540 317 l 5
 818 40 l 1
 730 -49 l 1
EndSplineSet
EndChar

StartChar: J
Encoding: 74 74 20
Width: 599
VWidth: 0
Flags: HMW
AnchorPoint: "ced" 255 0 basechar 0
AnchorPoint: "dot" 245 760 basechar 0
LayerCount: 2
Fore
SplineSet
384 260 m 1
 384 700 l 1
 519 700 l 1
 519 250 l 1
 384 260 l 1
384 260 m 5
 519 250 l 1
 519 61 414 -10 255 -10 c 0
 147 -10 56 41 10 162 c 1
 112 229 l 5
 157 146 204 120 265 120 c 0
 332 120 384 131 384 260 c 5
EndSplineSet
EndChar

StartChar: S
Encoding: 83 83 21
Width: 625
VWidth: 0
Flags: HMW
AnchorPoint: "ced" 315 0 basechar 0
AnchorPoint: "dot" 335 760 basechar 0
LayerCount: 2
Fore
SplineSet
444 204 m 1
 585 209 l 1
 585 70 477 -10 328 -10 c 0
 199 -10 72 56 30 113 c 1
 119 214 l 1
 157 170 234 123 317 123 c 0
 410 123 444 154 444 204 c 1
215 505 m 1
 70 499 l 1
 70 635 206 710 325 710 c 0
 444 710 516 674 568 622 c 1
 482 518 l 5
 450 551 403 577 325 577 c 0
 257 577 215 551 215 505 c 1
365 420 m 0
 498.1200246 384.862611266 585 341 585 209 c 1
 444 204 l 1
 444 255 414.692382812 268.458007812 302 300 c 0
 182.035181234 333.57750792 70 374 70 499 c 1
 215 505 l 1
 215 461 249.664765738 450.443045463 365 420 c 0
EndSplineSet
EndChar

StartChar: M
Encoding: 77 77 22
Width: 910
VWidth: 0
Flags: HMW
AnchorPoint: "ced" 758 0 basechar 0
AnchorPoint: "dot" 459 760 basechar 0
LayerCount: 2
Fore
SplineSet
519 102 m 1
 391 102 l 1
 431 245 l 5
 479 245 l 5
 519 102 l 1
755 700 m 1
 519 102 l 1
 431 245 l 5
 610 700 l 1
 755 700 l 1
830 700 m 1
 830 0 l 1
 690 0 l 1
 690 700 l 1
 830 700 l 1
155 700 m 1
 300 700 l 1
 479 245 l 5
 391 102 l 1
 155 700 l 1
80 700 m 1
 220 700 l 1
 220 0 l 1
 80 0 l 1
 80 700 l 1
EndSplineSet
EndChar

StartChar: Y
Encoding: 89 89 23
Width: 680
VWidth: 0
Flags: HMW
AnchorPoint: "ced" 345 0 basechar 0
AnchorPoint: "dot" 337 760 basechar 0
LayerCount: 2
Fore
SplineSet
270 295 m 1
 410 295 l 1
 410 0 l 1
 270 0 l 1
 270 295 l 1
10 700 m 1
 170 700 l 1
 410 295 l 1
 310 207 l 1
 10 700 l 1
510 700 m 5
 670 700 l 1
 370 207 l 1
 270 295 l 1
 510 700 l 5
EndSplineSet
EndChar

StartChar: W
Encoding: 87 87 24
Width: 1065
VWidth: 0
Flags: HMW
AnchorPoint: "ced" 750 0 basechar 0
AnchorPoint: "dot" 530 760 basechar 0
LayerCount: 2
Fore
SplineSet
860 0 m 1
 670 0 l 5
 670 10 l 5
 860 10 l 1
 860 0 l 1
615 700 m 1
 810 10 l 1
 670 0 l 5
 484 700 l 1
 615 700 l 1
860 0 m 1
 730 10 l 1
 900 700 l 1
 1050 700 l 1
 860 0 l 1
395 0 m 1
 205 0 l 1
 205 10 l 1
 395 10 l 1
 395 0 l 1
165 700 m 1
 345 10 l 1
 205 0 l 1
 15 700 l 1
 165 700 l 1
395 0 m 1
 265 10 l 1
 450 700 l 1
 591 700 l 1
 395 0 l 1
EndSplineSet
EndChar

StartChar: N
Encoding: 78 78 25
Width: 790
VWidth: 0
Flags: HMW
AnchorPoint: "ced" 650 0 basechar 0
AnchorPoint: "dot" 400 760 basechar 0
LayerCount: 2
Fore
SplineSet
710 0 m 1
 550 0 l 1
 550 24 l 1
 710 14 l 1
 710 0 l 1
240 700 m 1
 240 680 l 1
 80 680 l 1
 80 700 l 1
 240 700 l 1
110 650 m 5
 240 700 l 1
 680 50 l 1
 550 0 l 1
 110 650 l 5
570 700 m 1
 710 700 l 1
 710 0 l 1
 570 20 l 1
 570 700 l 1
80 700 m 1
 220 680 l 1
 220 0 l 1
 80 0 l 1
 80 700 l 1
EndSplineSet
EndChar

StartChar: X
Encoding: 88 88 26
Width: 750
VWidth: 0
Flags: HMW
AnchorPoint: "ced" 635 0 basechar 0
AnchorPoint: "dot" 374 760 basechar 0
LayerCount: 2
Fore
SplineSet
45 700 m 1
 210 700 l 1
 725 0 l 1
 560 0 l 5
 45 700 l 1
540 700 m 1
 705 700 l 1
 190 0 l 1
 25 0 l 1
 540 700 l 1
EndSplineSet
EndChar

StartChar: Z
Encoding: 90 90 27
Width: 680
VWidth: 0
Flags: HMW
AnchorPoint: "ced" 495 0 basechar 0
AnchorPoint: "dot" 335 760 basechar 0
LayerCount: 2
Fore
SplineSet
595 600 m 1
 565 600 l 1
 565 700 l 1
 595 700 l 1
 595 600 l 1
65 100 m 1
 95 100 l 1
 95 0 l 1
 65 0 l 1
 65 100 l 1
85 700 m 1
 565 700 l 1
 565 570 l 1
 85 570 l 1
 85 700 l 1
95 130 m 1
 615 130 l 1
 615 0 l 1
 95 0 l 1
 95 130 l 1
445 600 m 5
 595 600 l 1
 225 100 l 1
 65 100 l 1
 445 600 l 5
EndSplineSet
EndChar

StartChar: l
Encoding: 108 108 28
Width: 265
VWidth: 0
Flags: HMW
AnchorPoint: "ced" 133 0 basechar 0
AnchorPoint: "dot" 133 793 basechar 0
LayerCount: 2
Fore
SplineSet
65 730 m 5
 200 730 l 1
 200 0 l 1
 65 0 l 5
 65 730 l 5
EndSplineSet
EndChar

StartChar: b
Encoding: 98 98 29
Width: 655
VWidth: 0
Flags: HMW
AnchorPoint: "ced" 351 0 basechar 0
AnchorPoint: "dot" 355 673 basechar 0
LayerCount: 2
Fore
SplineSet
200 260 m 4
 200 179 252 115 340 115 c 0
 428 115 475 179 475 260 c 4
 475 339 428 405 340 405 c 0
 252 405 200 339 200 260 c 4
165 260 m 0
 165 409 206 530 370 530 c 0
 514 530 610 419 610 260 c 0
 610 101 514 -10 370 -10 c 0
 206 -10 165 111 165 260 c 0
65 730 m 1
 200 730 l 1
 200 0 l 1
 65 0 l 1
 65 730 l 1
EndSplineSet
EndChar

StartChar: c
Encoding: 99 99 30
Width: 573
VWidth: 0
Flags: HMW
AnchorPoint: "ced" 325 0 basechar 0
AnchorPoint: "dot" 325 673 basechar 0
LayerCount: 2
Fore
SplineSet
180 260 m 0
 180 171 238 115 325 115 c 0
 384 115 422 145 450 185 c 1
 543 92 l 1
 496 28 422 -10 325 -10 c 0
 166 -10 45 101 45 260 c 0
 45 419 166 530 325 530 c 0
 422 530 495 491 542 428 c 1
 450 335 l 5
 422 375 384 405 325 405 c 0
 238 405 180 349 180 260 c 0
EndSplineSet
EndChar

StartChar: d
Encoding: 100 100 31
Width: 655
VWidth: 0
Flags: HMW
AnchorPoint: "ced" 300 0 basechar 0
AnchorPoint: "dot" 295 673 basechar 0
LayerCount: 2
Fore
SplineSet
455 260 m 0
 455 346 398 405 315 405 c 4
 232 405 179 346 179 260 c 0
 179 174 232 115 315 115 c 4
 398 115 455 174 455 260 c 0
490 260 m 0
 490 111 449 -10 285 -10 c 0
 141 -10 45 101 45 260 c 0
 45 419 141 530 285 530 c 0
 449 530 490 409 490 260 c 0
590 730 m 1
 590 0 l 1
 455 0 l 1
 455 730 l 1
 590 730 l 1
EndSplineSet
EndChar

StartChar: k
Encoding: 107 107 32
Width: 615
VWidth: 0
Flags: HMW
AnchorPoint: "ced" 535 0 basechar 0
AnchorPoint: "dot" 345 673 basechar 0
LayerCount: 2
Fore
SplineSet
205 291 m 1
 350 311 l 1
 610 0 l 1
 452 0 l 1
 205 291 l 1
414 520 m 5
 590 520 l 1
 190 160 l 1
 80 204 l 1
 414 520 l 5
65 730 m 1
 200 730 l 1
 200 0 l 1
 65 0 l 1
 65 730 l 1
EndSplineSet
EndChar

StartChar: e
Encoding: 101 101 33
Width: 615
VWidth: 0
Flags: HMW
AnchorPoint: "ced" 320 0 basechar 0
AnchorPoint: "dot" 310 673 basechar 0
LayerCount: 2
Fore
SplineSet
575 260 m 1
 575 220 l 5
 440 220 l 5
 440 260 l 1
 575 260 l 1
440 220 m 5
 134 220 l 5
 134 317 l 1
 440 317 l 1
 440 220 l 5
440 260 m 1
 440 359 407 410 320 410 c 0
 233 410 180 359 180 260 c 1
 45 260 l 1
 45 419 161 530 320 530 c 0
 469 530 575 419 575 260 c 1
 440 260 l 1
45 260 m 1
 180 260 l 1
 180 161 233 110 322 110 c 0
 386 110 422 123 469 172 c 1
 558 92 l 1
 509 27 417 -10 320 -10 c 0
 151 -10 45 101 45 260 c 1
EndSplineSet
EndChar

StartChar: p
Encoding: 112 112 34
Width: 655
VWidth: 0
Flags: HMW
AnchorPoint: "ced" 355 0 basechar 0
AnchorPoint: "dot" 360 673 basechar 0
LayerCount: 2
Fore
SplineSet
199.999023438 260 m 0
 200 174 257 115 340 115 c 4
 422.999023438 115 476 174 476 260 c 0
 476 346 422.999023438 405 340 405 c 4
 257 405 200 346 199.999023438 260 c 0
164.999023438 259.999023438 m 0
 164.999023438 409 205.999023438 529.999023438 369.999023438 530 c 0
 514 529.999023438 610 418.999023438 610 260 c 0
 609.999023438 101 513.999023438 -10 369.999023438 -10 c 0
 205.999023438 -10 164.999023438 111 164.999023438 259.999023438 c 0
64.9990234375 -210 m 1
 65 520 l 1
 199.999023438 520 l 1
 200 -210 l 1
 64.9990234375 -210 l 1
EndSplineSet
EndChar

StartChar: q
Encoding: 113 113 35
Width: 655
VWidth: 0
Flags: HMW
AnchorPoint: "ced" 300 0 basechar 0
AnchorPoint: "dot" 295 673 basechar 0
LayerCount: 2
Fore
SplineSet
455 260 m 0
 455 346 398 405 315 405 c 4
 232 405 180 346 180 260 c 0
 180 174 232 115 315 115 c 4
 398 115 455 174 455 260 c 0
490 260 m 0
 490 111 449 -10 285 -10 c 0
 141 -10 45 101 45 260 c 0
 45 419 141 530 285 530 c 0
 449 530 490 409 490 260 c 0
590 -210 m 1
 455 -210 l 1
 455 520 l 1
 590 520 l 1
 590 -210 l 1
EndSplineSet
EndChar

StartChar: h
Encoding: 104 104 36
Width: 635
VWidth: 0
Flags: HMW
AnchorPoint: "ced" 505 0 basechar 0
AnchorPoint: "dot" 350 673 basechar 0
LayerCount: 2
Fore
SplineSet
570 320 m 1
 570 0 l 1
 435 0 l 1
 435 300 l 1
 570 320 l 1
70 730 m 1
 205 730 l 1
 205 0 l 1
 70 0 l 1
 70 730 l 1
435 300 m 1
 435 369 410 405 330 405 c 4
 261 405 205 370 205 280 c 1
 170 280 l 1
 170 419 231 530 370 530 c 0
 514 530 570 449 570 320 c 1
 435 300 l 1
EndSplineSet
EndChar

StartChar: n
Encoding: 110 110 37
Width: 635
VWidth: 0
Flags: HMW
AnchorPoint: "ced" 535 0 basechar 0
AnchorPoint: "dot" 330 673 basechar 0
LayerCount: 2
Fore
SplineSet
570 320 m 1
 570 0 l 1
 435 0 l 1
 435 300 l 1
 570 320 l 1
70 520 m 1
 205 520 l 1
 205 0 l 1
 70 0 l 1
 70 520 l 1
435 300 m 1
 435 370 400 405 330 405 c 4
 262 405 205 370 205 280 c 1
 170 280 l 1
 170 419 231 530 380 530 c 0
 514 530 570 449 570 320 c 1
 435 300 l 1
EndSplineSet
EndChar

StartChar: m
Encoding: 109 109 38
Width: 900
VWidth: 0
Flags: HMW
AnchorPoint: "ced" 795 0 basechar 0
AnchorPoint: "dot" 450 673 basechar 0
LayerCount: 2
Fore
SplineSet
855 320 m 1
 855 0 l 1
 720 0 l 1
 720 300 l 1
 855 320 l 1
720 300 m 1
 720 370 705 410 630 410 c 4
 567 410 522 380 522 280 c 1
 477 280 l 1
 477 419 516 530 670 530 c 0
 814 530 855 449 855 320 c 1
 720 300 l 1
522 320 m 1
 522 0 l 1
 388 0 l 1
 388 300 l 1
 522 320 l 1
55 520 m 1
 190 520 l 1
 190 0 l 1
 55 0 l 1
 55 520 l 1
388 300 m 1
 388 370 370 410 295 410 c 4
 232 410 190 370 190 280 c 1
 155 280 l 1
 155 419 191 530 335 530 c 0
 489 530 522 449 522 320 c 1
 388 300 l 1
EndSplineSet
EndChar

StartChar: r
Encoding: 114 114 39
Width: 410
VWidth: 0
Flags: HMW
AnchorPoint: "ced" 140 0 basechar 0
AnchorPoint: "dot" 210 673 basechar 0
LayerCount: 2
Fore
SplineSet
65 520 m 1
 200 520 l 1
 200 0 l 1
 65 0 l 1
 65 520 l 1
390 385 m 5
 370 385 l 6
 256 385 200 360 200 260 c 1
 165 270 l 1
 165 409 201 520 390 520 c 1
 390 385 l 5
EndSplineSet
EndChar

StartChar: u
Encoding: 117 117 40
Width: 635
VWidth: 0
Flags: HMW
AnchorPoint: "ced" 285 0 basechar 0
AnchorPoint: "dot" 305 673 basechar 0
LayerCount: 2
Fore
SplineSet
80 190 m 5
 80 520 l 1
 215 520 l 1
 215 220 l 1
 80 190 l 5
550 0 m 1
 415 0 l 1
 415 520 l 1
 550 520 l 1
 550 0 l 1
215 220 m 1
 215 150 235 115 305 115 c 0
 373 115 415 150 415 240 c 1
 450 240 l 1
 450 101 424 -10 275 -10 c 0
 156 -10 80 61 80 190 c 5
 215 220 l 1
EndSplineSet
EndChar

StartChar: g
Encoding: 103 103 41
Width: 655
VWidth: 0
Flags: HMW
AnchorPoint: "dot" 300 673 basechar 0
LayerCount: 2
Fore
SplineSet
455 260 m 0
 455 346 403 405 315 405 c 0
 227 405 180 346 180 260 c 0
 180 174 227 115 315 115 c 0
 403 115 455 174 455 260 c 0
490 260 m 0
 490 111 449 -10 285 -10 c 0
 141 -10 45 101 45 260 c 0
 45 419 141 530 285 530 c 0
 449 530 490 409 490 260 c 0
333 -95 m 1
 323 -226 l 5
 186 -226 84 -172 47 -108 c 1
 139 -23 l 1
 200 -77 240 -95 333 -95 c 1
590 0 m 1
 455 20 l 1
 455 520 l 1
 590 520 l 1
 590 0 l 1
455 20 m 1
 590 0 l 1
 590 -139 472 -226 323 -226 c 5
 333 -95 l 1
 400 -95 455 -69 455 20 c 1
EndSplineSet
EndChar

StartChar: i
Encoding: 105 105 42
Width: 255
VWidth: 0
Flags: HMW
AnchorPoint: "ced" 125 0 basechar 0
LayerCount: 2
Fore
SplineSet
44 677 m 4
 44 723 81 760 127 760 c 4
 173 760 210 723 210 677 c 4
 210 631 173 594 127 594 c 4
 81 594 44 631 44 677 c 4
60 520 m 1
 195 520 l 1
 195 0 l 1
 60 0 l 1
 60 520 l 1
EndSplineSet
EndChar

StartChar: t
Encoding: 116 116 43
Width: 410
VWidth: 0
Flags: HMW
AnchorPoint: "ced" 277 0 basechar 0
AnchorPoint: "dot" 315 673 basechar 0
LayerCount: 2
Fore
SplineSet
20 520 m 5
 370 520 l 5
 370 405 l 5
 20 405 l 5
 20 520 l 5
245 170 m 5
 110 140 l 5
 110 673 l 5
 245 673 l 5
 245 170 l 5
293 116 m 5
 318 116 334 126 345 140 c 5
 412 42 l 5
 385 13 340 -10 278 -10 c 5
 293 116 l 5
245 170 m 5
 245 140 255 116 293 116 c 5
 278 -10 l 5
 179 -10 110 41 110 140 c 5
 245 170 l 5
EndSplineSet
EndChar

StartChar: a
Encoding: 97 97 44
Width: 580
VWidth: 0
Flags: HMW
AnchorPoint: "ced" 430 0 basechar 0
AnchorPoint: "ring" 275 673 basechar 0
AnchorPoint: "dot" 275 673 basechar 0
LayerCount: 2
Fore
SplineSet
260 311 m 1
 435 311 l 1
 435 217 l 5
 280 217 l 5
 260 311 l 1
385 330 m 1
 385 377 354 410 288 410 c 1
 284 530 l 1
 427 530 520 454 520 330 c 1
 385 330 l 1
288 410 m 1
 234 410 182 396 143 366 c 1
 70 450 l 1
 126 499 182 530 284 530 c 1
 288 410 l 1
385 330 m 1
 520 330 l 1
 520 0 l 1
 385 0 l 1
 385 330 l 1
165 155 m 1
 165 119 207 100 260 100 c 0
 318 100 385 120 385 200 c 1
 420 180 l 1
 420 71 369 -10 230 -10 c 4
 101 -10 28 41 28 150 c 1
 165 155 l 1
260 311 m 1
 280 217 l 5
 201 217 165 196 165 155 c 1
 28 150 l 1
 28 285 153 311 260 311 c 1
EndSplineSet
EndChar

StartChar: j
Encoding: 106 106 45
Width: 255
VWidth: 0
Flags: HMW
LayerCount: 2
Fore
SplineSet
44 677 m 0
 44 723 81 760 127 760 c 0
 173 760 210 723 210 677 c 0
 210 631 173 594 127 594 c 0
 81 594 44 631 44 677 c 0
60 520 m 1
 195 520 l 1
 195 -60 l 1
 60 -40 l 1
 60 520 l 1
12 -85 m 1
 18 -210 l 1
 -39 -210 -89 -192 -116 -158 c 1
 -56 -57 l 1
 -39 -76 -21 -85 12 -85 c 1
60 -40 m 1
 195 -60 l 1
 195 -179 107 -210 18 -210 c 1
 12 -85 l 1
 39 -85 60 -80 60 -40 c 1
EndSplineSet
EndChar

StartChar: s
Encoding: 115 115 46
Width: 520
VWidth: 0
Flags: HMW
AnchorPoint: "ced" 260 0 basechar 0
AnchorPoint: "dot" 260 673 basechar 0
LayerCount: 2
Fore
SplineSet
351 153 m 1
 475 158 l 1
 475 62 409 -10 270 -10 c 0
 181 -10 105 8 20 104 c 1
 103 188 l 1
 164 128 213 110 268 110 c 0
 324 110 351 130 351 153 c 1
187 376 m 1
 56 372 l 1
 56 466 143 530 250 530 c 0
 349 530 416 496 458 448 c 1
 386 361 l 1
 354 393 308 415 260 415 c 0
 202 415 187 395 187 376 c 1
287 327 m 0
 404.035141987 298.215644526 475 268 475 158 c 1
 351 153 l 1
 351 180 331.893554688 189.612304688 245 212 c 4
 141.83203125 238.580078125 56 267 56 372 c 1
 187 376 l 1
 187 356 220.398339942 343.380429209 287 327 c 0
EndSplineSet
EndChar

StartChar: v
Encoding: 118 118 47
Width: 590
VWidth: 0
Flags: HMWO
AnchorPoint: "ced" 287 0 basechar 0
AnchorPoint: "dot" 273 673 basechar 0
LayerCount: 2
Fore
SplineSet
380 0 m 5
 210 0 l 1
 210 5 l 1
 380 5 l 5
 380 0 l 5
250 5 m 1
 435 520 l 1
 575 520 l 1
 380 0 l 5
 250 5 l 1
15 520 m 1
 155 520 l 1
 340 5 l 1
 210 0 l 1
 15 520 l 1
EndSplineSet
EndChar

StartChar: f
Encoding: 102 102 48
Width: 375
VWidth: 0
Flags: HMW
AnchorPoint: "ced" 160 0 basechar 0
LayerCount: 2
Fore
SplineSet
10 520 m 5
 363 520 l 1
 363 405 l 1
 10 405 l 5
 10 520 l 5
235 570 m 1
 235 0 l 1
 100 0 l 1
 100 590 l 1
 235 570 l 1
283 621 m 1
 267 740 l 1
 329 740 374 718 400 688 c 1
 332 599 l 1
 322 614 312 621 283 621 c 1
235 570 m 1
 100 590 l 1
 100 669 178 740 267 740 c 1
 283 621 l 1
 248 621 235 599 235 570 c 1
EndSplineSet
Substitution2: "fi-1" fi
EndChar

StartChar: y
Encoding: 121 121 49
Width: 579
VWidth: 0
Flags: HMW
AnchorPoint: "dot" 295 673 basechar 0
LayerCount: 2
Fore
SplineSet
20 520 m 1
 165 520 l 1
 374 5 l 1
 249 0 l 1
 20 520 l 1
157 -87 m 1
 169 -210 l 1
 112 -210 62 -184 35 -150 c 1
 86 -45 l 5
 105 -74 128 -87 157 -87 c 1
224 -34 m 2
 429 520 l 1
 564 520 l 1
 349 -60 l 2
 309.526199631 -166.487461461 258 -210 169 -210 c 1
 157 -87 l 1
 194 -87 209.153320312 -74.05078125 224 -34 c 2
EndSplineSet
EndChar

StartChar: w
Encoding: 119 119 50
Width: 795
VWidth: 0
Flags: HMW
AnchorPoint: "ced" 570 0 basechar 0
AnchorPoint: "dot" 398 673 basechar 0
LayerCount: 2
Fore
SplineSet
325 520 m 1
 470 520 l 1
 470 467 l 1
 325 467 l 1
 325 520 l 1
650 0 m 1
 485 0 l 1
 485 5 l 1
 630 25 l 1
 650 0 l 1
530 5 m 1
 635 520 l 1
 775 520 l 1
 650 0 l 1
 530 5 l 1
365 457 m 1
 470 520 l 1
 600 25 l 1
 485 0 l 1
 365 457 l 1
310 0 m 1
 145 0 l 1
 145 25 l 1
 310 5 l 1
 310 0 l 1
195 25 m 1
 325 520 l 1
 430 457 l 1
 310 0 l 1
 195 25 l 1
20 520 m 1
 160 520 l 1
 265 5 l 1
 145 0 l 1
 20 520 l 1
EndSplineSet
EndChar

StartChar: x
Encoding: 120 120 51
Width: 615
VWidth: 0
Flags: HMW
AnchorPoint: "ced" 510 0 basechar 0
AnchorPoint: "dot" 280 673 basechar 0
LayerCount: 2
Fore
SplineSet
15 0 m 1
 425 520 l 1
 585 520 l 1
 175 0 l 1
 15 0 l 1
30 520 m 5
 190 520 l 5
 600 0 l 1
 440 0 l 1
 30 520 l 5
EndSplineSet
EndChar

StartChar: z
Encoding: 122 122 52
Width: 559
VWidth: 0
Flags: HMW
AnchorPoint: "ced" 439.583 0 basechar 0
AnchorPoint: "dot" 279.583 673 basechar 0
LayerCount: 2
Fore
SplineSet
39.5830078125 95 m 1
 79.5830078125 95 l 1
 79.5830078125 0 l 1
 39.5830078125 0 l 1
 39.5830078125 95 l 1
69.5830078125 125 m 5
 509.583007812 125 l 1
 509.583007812 0 l 1
 69.5830078125 0 l 5
 69.5830078125 125 l 5
469.583007812 520 m 1
 499.583007812 520 l 1
 499.583007812 425 l 1
 469.583007812 425 l 1
 469.583007812 520 l 1
59.5830078125 520 m 1
 469.583007812 520 l 1
 469.583007812 395 l 1
 59.5830078125 395 l 1
 59.5830078125 520 l 1
339.583007812 425 m 1
 499.583007812 425 l 1
 199.583007812 95 l 1
 39.5830078125 95 l 1
 339.583007812 425 l 1
EndSplineSet
EndChar

StartChar: zero
Encoding: 48 48 53
Width: 600
VWidth: 0
Flags: HMW
LayerCount: 2
Fore
SplineSet
175 350 m 0
 175 213 198 120 300 120 c 0
 402 120 425 213 425 350 c 4
 425 487 402 580 300 580 c 0
 198 580 175 487 175 350 c 0
35 350 m 0
 35 559 125 710 300 710 c 0
 475 710 565 559 565 350 c 4
 565 141 475 -10 300 -10 c 0
 125 -10 35 141 35 350 c 0
EndSplineSet
EndChar

StartChar: one
Encoding: 49 49 54
Width: 600
VWidth: 0
Flags: HMW
LayerCount: 2
Fore
SplineSet
430 700 m 1
 430 496 l 1
 340 496 l 1
 340 700 l 1
 430 700 l 1
340 700 m 1
 391 566 l 1
 93 492 l 5
 80 600 l 1
 340 700 l 1
300 660 m 1
 430 700 l 1
 430 0 l 1
 300 0 l 1
 300 660 l 1
EndSplineSet
EndChar

StartChar: six
Encoding: 54 54 55
Width: 600
VWidth: 0
Flags: HMW
LayerCount: 2
Fore
SplineSet
180 225 m 1
 115 285 l 1
 195 404 241 445 350 445 c 1
 300 332 l 1
 222 332 180 285 180 225 c 1
180 225 m 0
 180 165 222 118 300 118 c 0
 378 118 420 165 420 225 c 0
 420 285 378 332 300 332 c 1
 350 445 l 1
 469 445 550 354 550 225 c 0
 550 96 449 -10 300 -10 c 0
 151 -10 50 96 50 225 c 0
 50 282.265625 63.9306640625 337.206054688 98 387 c 2
 309 700 l 1
 479 700 l 1
 207.537109375 361.75390625 l 1
 185.174804688 354.909179688 l 1
 146.650390625 325.858398438 180 266.161132812 180 225 c 0
EndSplineSet
EndChar

StartChar: period
Encoding: 46 46 56
Width: 230
VWidth: 0
Flags: HMW
LayerCount: 2
Fore
SplineSet
30 75 m 4
 30 122 68 160 115 160 c 4
 162 160 200 122 200 75 c 4
 200 28 162 -10 115 -10 c 4
 68 -10 30 28 30 75 c 4
EndSplineSet
EndChar

StartChar: comma
Encoding: 44 44 58
Width: 254
VWidth: 0
Flags: HMW
LayerCount: 2
Fore
SplineSet
40 75 m 0
 40 122 78 160 125 160 c 0
 182 160 215 122 215 75 c 0
 215 55.6748046875 205.03125 28.1279296875 188.743164062 3.60546875 c 2
 100 -130 l 1
 30 -130 l 1
 83.306640625 0.884765625 l 1
 57.44140625 15.447265625 40 43.158203125 40 75 c 0
EndSplineSet
EndChar

StartChar: two
Encoding: 50 50 60
Width: 600
VWidth: 0
Flags: HMW
LayerCount: 2
Fore
SplineSet
40 105 m 1
 70 105 l 1
 70 0 l 1
 40 0 l 1
 40 105 l 1
405 498 m 1
 405 547 369 585 305 585 c 0
 246 585 184 540 149 457 c 1
 40 523 l 1
 82 629 177 710 295 710 c 0
 464 710 540 615 540 496 c 1
 405 498 l 1
70 0 m 1
 70 125 l 1
 560 125 l 1
 560 0 l 1
 70 0 l 1
406 255 m 2
 228 105 l 5
 40 105 l 5
 297 330 l 2
 384.959982197 407.007766515 405 447 405 498 c 1
 540 496 l 1
 540 396 512.174804688 345.017578125 406 255 c 2
EndSplineSet
EndChar

StartChar: three
Encoding: 51 51 62
Width: 600
VWidth: 0
Flags: HMW
LayerCount: 2
Fore
SplineSet
250 404 m 1
 437 404 560 347 560 197 c 0
 560 57 427 -10 300 -10 c 0
 210 -10 106 14 40 99 c 5
 126 194 l 5
 167 139 234 119 292 119 c 0
 365 119 425 138 425 207 c 0
 425 266 373 305 250 305 c 1
 250 404 l 1
65 602 m 5
 114 660 186 710 300 710 c 0
 434 710 530 639 530 530 c 0
 530 391 424 330 250 330 c 1
 250 430 l 1
 370 430 395 464 395 512 c 0
 395 552 360 580 290 580 c 0
 235 580 188 556 148 508 c 5
 65 602 l 5
EndSplineSet
EndChar

StartChar: eight
Encoding: 56 56 63
Width: 600
VWidth: 0
Flags: HMW
LayerCount: 2
Fore
SplineSet
205 510 m 0
 205 462 240 430 300 430 c 0
 360 430 395 462 395 510 c 0
 395 558 360 595 300 595 c 0
 240 595 205 558 205 510 c 0
70 530 m 0
 70 649 176 720 300 720 c 0
 424 720 530 649 530 530 c 0
 530 411 424 330 300 330 c 0
 176 330 70 411 70 530 c 0
40 187 m 4
 40 327 163 404 300 404 c 4
 437 404 560 327 560 187 c 4
 560 37 437 -20 300 -20 c 0
 163 -20 40 37 40 187 c 4
185 207 m 0
 185 148 227 104 300 104 c 0
 373 104 415 148 415 207 c 0
 415 266 373 305 300 305 c 0
 227 305 185 266 185 207 c 0
EndSplineSet
EndChar

StartChar: four
Encoding: 52 52 64
Width: 595
VWidth: 0
Flags: HMW
LayerCount: 2
Fore
SplineSet
25.283203125 240 m 1
 145.283203125 240 l 1
 145.283203125 125 l 1
 25.283203125 125 l 1
 25.283203125 240 l 1
45.283203125 250 m 1
 545.283203125 250 l 1
 545.283203125 125 l 1
 45.283203125 125 l 1
 45.283203125 250 l 1
485.283203125 700 m 1
 485.283203125 673 l 1
 340.283203125 673 l 1
 340.283203125 700 l 1
 485.283203125 700 l 1
340.283203125 700 m 1
 455.283203125 659 l 1
 150.283203125 220 l 1
 25.283203125 240 l 1
 340.283203125 700 l 1
350.283203125 680 m 1
 485.283203125 700 l 1
 485.283203125 0 l 1
 350.283203125 0 l 1
 350.283203125 680 l 1
EndSplineSet
EndChar

StartChar: five
Encoding: 53 53 65
Width: 600
VWidth: 0
Flags: HMW
LayerCount: 2
Fore
SplineSet
70 351 m 1
 80 386 l 1
 150 386 l 1
 170 301 l 1
 70 351 l 1
340 461 m 1
 447 461 550 375 550 225 c 0
 550 65 427 -10 300 -10 c 0
 210 -10 86 44 30 139 c 1
 125 212 l 1
 176 137 237 111 300 111 c 0
 363 111 425 143 425 222 c 0
 425 291 391 348 298 348 c 1
 340 461 l 1
70 351 m 1
 70 700 l 1
 195 700 l 5
 195 341 l 1
 70 351 l 1
70 700 m 1
 510 700 l 1
 510 585 l 1
 70 585 l 1
 70 700 l 1
298 348 m 1
 241 348 214 342 170 301 c 1
 140 351 l 1
 170 440 251 461 340 461 c 1
 298 348 l 1
EndSplineSet
EndChar

StartChar: seven
Encoding: 55 55 66
Width: 600
VWidth: 0
Flags: HMW
LayerCount: 2
Fore
SplineSet
551 600 m 1
 281 0 l 1
 134 0 l 1
 404 600 l 5
 551 600 l 1
530 700 m 1
 551 700 l 1
 551 600 l 1
 530 600 l 1
 530 700 l 1
50 700 m 1
 530 700 l 1
 530 575 l 1
 50 575 l 1
 50 700 l 1
EndSplineSet
EndChar

StartChar: exclam
Encoding: 33 33 67
Width: 270
VWidth: 0
Flags: HMW
LayerCount: 2
Fore
SplineSet
66 490 m 1
 204 490 l 1
 177 250 l 1
 93 250 l 1
 66 490 l 1
66 730 m 1
 204 730 l 1
 204 490 l 1
 66 490 l 1
 66 730 l 1
EndSplineSet
Refer: 56 46 N 1 0 0 1 20 0 2
EndChar

StartChar: quotesingle
Encoding: 39 39 69
Width: 240
VWidth: 0
Flags: HMW
LayerCount: 2
Fore
SplineSet
35 655 m 0
 35 702 73 740 120 740 c 0
 167 740 205 702 205 655 c 0
 205 646 204.567382812 634.483398438 201 624 c 6
 152 480 l 1
 88 480 l 1
 39 624 l 6
 35.4326171875 634.483398438 35 646 35 655 c 0
EndSplineSet
EndChar

StartChar: numbersign
Encoding: 35 35 70
Width: 810
VWidth: 0
Flags: HMW
LayerCount: 2
Fore
SplineSet
730 270 m 5
 730 155 l 5
 40 155 l 5
 40 270 l 5
 730 270 l 5
770 545 m 1
 770 430 l 1
 80 430 l 1
 80 545 l 1
 770 545 l 1
545 700 m 1
 665 700 l 1
 545 0 l 1
 425 0 l 1
 545 700 l 1
265 700 m 1
 385 700 l 1
 265 0 l 1
 145 0 l 1
 265 700 l 1
EndSplineSet
EndChar

StartChar: percent
Encoding: 37 37 71
Width: 940
VWidth: 0
Flags: HMW
LayerCount: 2
Fore
SplineSet
640 180 m 0
 640 131 674 95 720 95 c 0
 766 95 800 131 800 180 c 0
 800 229 766 265 720 265 c 0
 674 265 640 229 640 180 c 0
140 520 m 0
 140 471 174 435 220 435 c 0
 266 435 300 471 300 520 c 0
 300 569 266 605 220 605 c 0
 174 605 140 569 140 520 c 0
30 520 m 0
 30 625 115 710 220 710 c 0
 325 710 410 625 410 520 c 0
 410 415 325 330 220 330 c 0
 115 330 30 415 30 520 c 0
530 180 m 0
 530 285 615 370 720 370 c 0
 825 370 910 285 910 180 c 0
 910 75 825 -10 720 -10 c 0
 615 -10 530 75 530 180 c 0
650 700 m 1
 770 700 l 1
 290 0 l 1
 170 0 l 1
 650 700 l 1
EndSplineSet
EndChar

StartChar: dollar
Encoding: 36 36 72
Width: 600
VWidth: 0
Flags: HMW
LayerCount: 2
Fore
SplineSet
281 780 m 1
 351 780 l 1
 351 -80 l 1
 281 -80 l 1
 281 780 l 1
EndSplineSet
Refer: 21 83 N 1 0 0 1 -10 0 2
EndChar

StartChar: asterisk
Encoding: 42 42 73
Width: 324
VWidth: 0
Flags: HMW
LayerCount: 2
Fore
SplineSet
50 475 m 1
 15 535 l 1
 274 685 l 1
 309 625 l 1
 50 475 l 1
15 625 m 1
 50 685 l 1
 309 535 l 1
 274 475 l 1
 15 625 l 1
127 730 m 1
 197 730 l 1
 197 430 l 1
 127 430 l 1
 127 730 l 1
EndSplineSet
EndChar

StartChar: slash
Encoding: 47 47 74
Width: 430
VWidth: 0
Flags: HMW
LayerCount: 2
Fore
SplineSet
340 780 m 1
 450 780 l 1
 90 -80 l 5
 -20 -80 l 1
 340 780 l 1
EndSplineSet
EndChar

StartChar: ampersand
Encoding: 38 38 75
Width: 715
VWidth: 0
Flags: HMW
LayerCount: 2
Fore
SplineSet
305 403 m 0
 381.7890625 423.8046875 405 490 405 530 c 1
 525 530 l 1
 525 435 427.557617188 357.01171875 335 335 c 0
 237.270507812 311.758789062 190 274 190 200 c 5
 70 190 l 1
 70 330 199.364257812 374.379882812 305 403 c 0
265 540 m 1
 145 540 l 1
 145 649 226 710 335 710 c 0
 444 710 525 649 525 530 c 1
 405 530 l 1
 405 579 377 605 335 605 c 4
 298 605 265 584 265 540 c 1
280 291 m 2
 192.19140625 395.72265625 145 460 145 540 c 1
 265 540 l 1
 265 499 297.316523066 437.349819931 380 339 c 2
 665 0 l 1
 525 0 l 1
 280 291 l 2
554 329 m 1
 650 284 l 1
 620 115 489 -10 320 -10 c 0
 171 -10 70 71 70 190 c 1
 190 200 l 5
 190 141 243 105 330 105 c 0
 437 105 524 180 554 329 c 1
EndSplineSet
EndChar

StartChar: parenleft
Encoding: 40 40 76
Width: 275
VWidth: 0
Flags: HMW
LayerCount: 2
Fore
SplineSet
170 750 m 1
 270 700 l 1
 110 440 110 90 270 -170 c 5
 170 -220 l 1
 -30 90 -30 440 170 750 c 1
EndSplineSet
EndChar

StartChar: hyphen
Encoding: 45 45 78
Width: 430
VWidth: 0
Flags: HMW
LayerCount: 2
Fore
SplineSet
65 355 m 5
 365 355 l 5
 365 240 l 1
 65 240 l 1
 65 355 l 5
EndSplineSet
EndChar

StartChar: plus
Encoding: 43 43 79
Width: 510
VWidth: 0
Flags: HMW
LayerCount: 2
Fore
SplineSet
315 589 m 5
 315 134 l 5
 195 134 l 1
 195 589 l 1
 315 589 l 5
30 419 m 1
 480 419 l 1
 480 304 l 1
 30 304 l 1
 30 419 l 1
EndSplineSet
EndChar

StartChar: equal
Encoding: 61 61 80
Width: 510
VWidth: 0
Flags: HMW
LayerCount: 2
Fore
SplineSet
30 295 m 1
 480 295 l 1
 480 180 l 1
 30 180 l 1
 30 295 l 1
30 530 m 5
 480 530 l 5
 480 415 l 1
 30 415 l 1
 30 530 l 5
EndSplineSet
EndChar

StartChar: backslash
Encoding: 92 92 81
Width: 430
VWidth: 0
Flags: HMW
LayerCount: 2
Fore
SplineSet
90 780 m 1
 450 -80 l 1
 340 -80 l 5
 -20 780 l 1
 90 780 l 1
EndSplineSet
EndChar

StartChar: less
Encoding: 60 60 82
Width: 510
VWidth: 0
Flags: HMW
LayerCount: 2
Fore
SplineSet
30 415 m 5
 480 225 l 5
 480 110 l 5
 30 300 l 5
 30 415 l 5
30 415 m 5
 480 605 l 5
 480 490 l 5
 30 300 l 5
 30 415 l 5
EndSplineSet
EndChar

StartChar: question
Encoding: 63 63 84
Width: 555
VWidth: 0
Flags: HMW
LayerCount: 2
Fore
SplineSet
319 452 m 0
 374.67578125 480.341796875 385 508 385 546 c 1
 510 556 l 1
 510 461 478.134765625 411.75 400 374 c 0
 341.237304688 345.609375 325 331 325 250 c 1
 205 250 l 1
 185 400 249.790039062 416.768554688 319 452 c 0
385 546 m 1
 385 588 348 625 279 625 c 0
 206 625 167 590 132 527 c 1
 40 593 l 1
 82 679 162 740 285 740 c 0
 429 740 510 655 510 556 c 1
 385 546 l 1
EndSplineSet
Refer: 56 46 N 1 0 0 1 157 0 2
EndChar

StartChar: at
Encoding: 64 64 85
Width: 1050
VWidth: 0
Flags: HMW
LayerCount: 2
Fore
SplineSet
660 260 m 0
 660 359 592 415 515 415 c 0
 438 415 370 359 370 260 c 0
 370 161 438 105 515 105 c 0
 592 105 660 161 660 260 c 0
695 260 m 0
 695 111 654 -10 495 -10 c 0
 366 -10 250 101 250 260 c 0
 250 419 366 530 495 530 c 0
 654 530 695 409 695 260 c 0
780 520 m 1
 780 120 l 1
 660 100 l 1
 660 520 l 1
 780 520 l 1
55 260 m 0
 55 519 246 730 525 730 c 0
 784 730 995 559 995 300 c 0
 995 63.638671875 873.768554688 -10.2880859375 797.8671875 -10.2880859375 c 0
 703.793945312 -10.2880859375 660 43.19921875 660 100 c 1
 780 120 l 1
 780 60.53515625 790.893554688 32.859375 827.37890625 32.859375 c 0
 878.646484375 32.859375 964 115.765625 964 300 c 0
 964 543 768 701 525 701 c 0
 262 701 86 503 86 260 c 0
 86 17 282 -181 525 -181 c 1
 525 -210 l 1
 266 -210 55 1 55 260 c 0
EndSplineSet
EndChar

StartChar: bracketleft
Encoding: 91 91 86
Width: 315
VWidth: 0
Flags: HMW
LayerCount: 2
Fore
SplineSet
145 614 m 1
 145 730 l 1
 295 730 l 1
 295 614 l 1
 145 614 l 1
145 -200 m 1
 145 -84 l 5
 295 -84 l 5
 295 -200 l 1
 145 -200 l 1
45 730 m 1
 165 730 l 1
 165 -200 l 1
 45 -200 l 1
 45 730 l 1
EndSplineSet
EndChar

StartChar: asciicircum
Encoding: 94 94 88
Width: 510
VWidth: 0
Flags: HMW
LayerCount: 2
Fore
SplineSet
380 430 m 1
 190 730 l 1
 320 730 l 1
 490 430 l 1
 380 430 l 1
190 730 m 1
 320 730 l 1
 130 430 l 5
 20 430 l 1
 190 730 l 1
EndSplineSet
EndChar

StartChar: underscore
Encoding: 95 95 89
Width: 600
VWidth: 0
Flags: HMW
LayerCount: 2
Fore
SplineSet
-2 -60 m 5
 602 -60 l 5
 602 -180 l 1
 -2 -180 l 1
 -2 -60 l 5
EndSplineSet
EndChar

StartChar: braceleft
Encoding: 123 123 90
Width: 369
VWidth: 0
Flags: HMW
LayerCount: 2
Fore
SplineSet
55 325 m 1
 73 325 l 1
 73 205 l 1
 55 205 l 1
 55 325 l 1
137 150 m 5
 257 150 l 5
 257 -10 l 1
 137 -50 l 1
 137 150 l 5
137 580 m 1
 257 540 l 1
 257 380 l 1
 137 380 l 1
 137 580 l 1
137 380 m 1
 257 380 l 1
 257 281 180 230 61 230 c 5
 55 325 l 1
 123 325 137 340 137 380 c 1
137 150 m 1
 137 190 123 205 55 205 c 1
 61 300 l 1
 180 300 257 249 257 150 c 1
 137 150 l 1
257 540 m 1
 137 580 l 1
 137 659 214 730 333 730 c 1
 339 615 l 1
 261 615 257 580 257 540 c 1
257 -10 m 1
 257 -50 261 -85 339 -85 c 1
 333 -200 l 1
 214 -200 137 -129 137 -50 c 1
 257 -10 l 1
EndSplineSet
EndChar

StartChar: bar
Encoding: 124 124 92
Width: 320
VWidth: 0
Flags: HMW
LayerCount: 2
Fore
SplineSet
205 780 m 5
 205 -80 l 5
 115 -80 l 1
 115 780 l 1
 205 780 l 5
EndSplineSet
EndChar

StartChar: asciitilde
Encoding: 126 126 93
Width: 470
VWidth: 0
Flags: HMW
LayerCount: 2
Fore
SplineSet
125 164 m 1
 45 194 l 1
 49.5654296875 272.260742188 96.859375 320.638671875 148.23046875 320.638671875 c 0
 211.844726562 320.638671875 257.365234375 256.962890625 301.607421875 256.962890625 c 0
 346.108398438 256.962890625 355 286.58984375 355 324 c 1
 425 294 l 1
 420.434570312 205.739257812 373.989257812 167.361328125 323.821289062 167.361328125 c 0
 262.262695312 167.361328125 219.831054688 231.037109375 177.247070312 231.037109375 c 4
 133.446289062 231.037109375 125 201.41015625 125 164 c 1
EndSplineSet
EndChar

StartChar: tilde
Encoding: 732 732 98
Width: 500
VWidth: 0
Flags: HMW
AnchorPoint: "dot" 250 610 basechar 0
LayerCount: 2
Fore
SplineSet
140 600 m 5
 49 620 l 1
 53.5654296875 698.260742188 111.859375 746.638671875 163.23046875 746.638671875 c 0
 226.844726562 746.638671875 262.365234375 702.962890625 306.607421875 702.962890625 c 0
 341.108398438 702.962890625 370 712.58984375 370 740 c 1
 460 720 l 1
 455.434570312 631.739257812 388.989257812 593.361328125 338.821289062 593.361328125 c 0
 277.262695312 593.361328125 244.831054688 637.037109375 202.247070312 637.037109375 c 4
 168.446289062 637.037109375 140 627.41015625 140 600 c 5
EndSplineSet
EndChar

StartChar: dotaccent
Encoding: 729 729 99
Width: 500
VWidth: 0
Flags: HMW
AnchorPoint: "dot" 250 590 basechar 0
LayerCount: 2
Fore
SplineSet
164 666 m 0
 164 713 203 752 250 752 c 0
 297 752 336 713 336 666 c 0
 336 619 297 580 250 580 c 0
 203 580 164 619 164 666 c 0
EndSplineSet
EndChar

StartChar: ring
Encoding: 730 730 100
Width: 500
VWidth: 0
Flags: HMW
AnchorPoint: "ring" 250 590 basechar 0
LayerCount: 2
Fore
SplineSet
200 680 m 0
 200 651 221 630 250 630 c 0
 279 630 300 651 300 680 c 0
 300 709 279 730 250 730 c 4
 221 730 200 709 200 680 c 0
150 680 m 0
 150 735 195 780 250 780 c 0
 305 780 350 735 350 680 c 0
 350 625 305 580 250 580 c 0
 195 580 150 625 150 680 c 0
EndSplineSet
EndChar

StartChar: breve
Encoding: 728 728 101
Width: 500
VWidth: 0
Flags: HMW
AnchorPoint: "dot" 244 559 basechar 0
LayerCount: 2
Fore
SplineSet
244 679 m 1
 204 679 179 693 179 741 c 1
 64 735 l 1
 64 636 135 559 244 559 c 1
 244 679 l 1
244 679 m 5
 244 559 l 1
 353 559 424 636 424 735 c 1
 309 741 l 5
 309 693 286 679 244 679 c 5
EndSplineSet
EndChar

StartChar: circumflex
Encoding: 710 710 102
Width: 500
VWidth: 0
Flags: HMW
AnchorPoint: "dot" 250 630 basechar 0
LayerCount: 2
Fore
SplineSet
315 630 m 1
 215 730 l 1
 305 730 l 1
 405 630 l 1
 315 630 l 1
195 730 m 5
 285 730 l 1
 185 630 l 1
 95 630 l 5
 195 730 l 5
EndSplineSet
EndChar

StartChar: caron
Encoding: 711 711 103
Width: 500
VWidth: 0
Flags: HMW
AnchorPoint: "dot" 250 630 basechar 0
LayerCount: 2
Fore
SplineSet
185 730 m 1
 285 630 l 1
 195 630 l 5
 95 730 l 5
 185 730 l 1
305 630 m 1
 215 630 l 1
 315 730 l 1
 405 730 l 1
 305 630 l 1
EndSplineSet
EndChar

StartChar: cent
Encoding: 162 162 105
Width: 600
VWidth: 0
Flags: HMW
LayerCount: 2
Fore
SplineSet
295 600 m 5
 355 600 l 1
 355 -80 l 1
 295 -80 l 5
 295 600 l 5
EndSplineSet
Refer: 30 99 N 1 0 0 1 10 0 2
EndChar

StartChar: sterling
Encoding: 163 163 108
Width: 600
VWidth: 0
Flags: HMW
LayerCount: 2
Fore
SplineSet
170 45 m 1
 57 -1 l 1
 227 272.541992188 95 278.921875 95 530 c 1
 225 520 l 1
 225 336.112304688 320 219.735351562 170 45 c 1
135 -45 m 1
 57 -1 l 1
 131.565429688 77.2607421875 186.859375 111.638671875 258.23046875 111.638671875 c 0
 321.844726562 111.638671875 362.365234375 87.962890625 406.607421875 87.962890625 c 4
 451.108398438 87.962890625 470 98.58984375 490 136 c 1
 565 70 l 1
 540.434570312 -18.2607421875 463.989257812 -31.638671875 413.821289062 -31.638671875 c 0
 332.262695312 -31.638671875 274.831054688 -7.962890625 232.247070312 -7.962890625 c 0
 188.446289062 -7.962890625 155 -25.58984375 135 -45 c 1
45 400 m 1
 343 400 l 1
 343 285 l 1
 45 285 l 1
 45 400 l 1
305 585 m 1
 299 710 l 1
 381 710 450 669 487 610 c 1
 421 517 l 1
 394 556 349 585 305 585 c 1
225 520 m 1
 95 530 l 1
 95 639 166 710 299 710 c 1
 305 585 l 1
 250 585 225 569 225 520 c 1
EndSplineSet
EndChar

StartChar: currency
Encoding: 164 164 109
Width: 600
VWidth: 0
Flags: HMW
LayerCount: 2
Fore
SplineSet
123 209 m 5
 194 138 l 1
 98 42 l 1
 27 113 l 5
 123 209 l 5
401 143 m 1
 471 214 l 1
 572 113 l 1
 502 42 l 1
 401 143 l 1
502 588 m 1
 573 517 l 1
 460 404 l 1
 389 475 l 1
 502 588 l 1
27 517 m 1
 98 588 l 1
 211 475 l 1
 140 404 l 1
 27 517 l 1
188 315 m 0
 188 248 234 199 300 199 c 0
 376 199 412 248 412 315 c 0
 412 382 366 431 300 431 c 0
 234 431 188 382 188 315 c 0
84 315 m 0
 84 434 181 531 300 531 c 0
 419 531 516 434 516 315 c 0
 516 196 419 99 300 99 c 0
 181 99 84 196 84 315 c 0
EndSplineSet
EndChar

StartChar: brokenbar
Encoding: 166 166 111
Width: 300
VWidth: 0
Flags: HMW
LayerCount: 2
Fore
SplineSet
185 460 m 5
 115 460 l 5
 115 780 l 1
 185 780 l 1
 185 460 l 5
185 280 m 1
 185 -80 l 1
 115 -80 l 1
 115 280 l 1
 185 280 l 1
EndSplineSet
EndChar

StartChar: section
Encoding: 167 167 112
Width: 520
VWidth: 0
Flags: HMW
LayerCount: 2
Fore
SplineSet
365 140 m 1
 485 140 l 1
 485 61 414 -10 275 -10 c 0
 166 -10 100 37 45 104 c 1
 110 185 l 1
 156 135 217 105 275 105 c 0
 338 105 365 118 365 140 c 1
280 307 m 0
 397 288 485 260 485 140 c 1
 365 140 l 1
 365 160 358.594726562 180.76171875 250 196 c 0
 146.522460938 210.520507812 10 328 150 473 c 1
 230 473 l 1
 130 373 182.280273438 322.869140625 280 307 c 0
180 558 m 1
 80 563 l 1
 80 659 166 710 275 710 c 0
 384 710 436 670 478 628 c 1
 408 547 l 5
 370 580 323 595 275 595 c 0
 217 595 180 585 180 558 c 1
300 508 m 0
 417 489 555 400 415 250 c 1
 335 250 l 1
 435 340 378.594726562 401.76171875 270 417 c 0
 166.522460938 431.520507812 80 468 80 563 c 1
 180 558 l 1
 180 538 202.280273438 523.869140625 300 508 c 0
EndSplineSet
EndChar

StartChar: copyright
Encoding: 169 169 114
Width: 850
VWidth: 0
Flags: HMW
LayerCount: 2
Fore
SplineSet
113 350 m 0
 113 174 254 30 425 30 c 0
 596 30 737 174 737 350 c 0
 737 526 596 670 425 670 c 0
 254 670 113 526 113 350 c 0
70 350 m 0
 70 549 230 710 425 710 c 0
 620 710 780 549 780 350 c 0
 780 151 620 -10 425 -10 c 0
 230 -10 70 151 70 350 c 0
EndSplineSet
Refer: 8 67 N 0.5 0 0 0.5 220.5 175 2
EndChar

StartChar: registered
Encoding: 174 174 116
Width: 850
VWidth: 0
Flags: HMW
LayerCount: 2
Fore
SplineSet
113 350 m 0
 113 174 254 30 425 30 c 0
 596 30 737 174 737 350 c 0
 737 526 596 670 425 670 c 0
 254 670 113 526 113 350 c 0
70 350 m 0
 70 549 230 710 425 710 c 0
 620 710 780 549 780 350 c 0
 780 151 620 -10 425 -10 c 0
 230 -10 70 151 70 350 c 0
EndSplineSet
Refer: 17 82 S 0.5 0 0 0.5 252 175 2
EndChar

StartChar: degree
Encoding: 176 176 119
Width: 400
VWidth: 0
Flags: HMW
LayerCount: 2
Fore
SplineSet
130 680 m 0
 130 641 161 610 200 610 c 0
 239 610 270 641 270 680 c 0
 270 719 239 750 200 750 c 0
 161 750 130 719 130 680 c 0
100 680 m 0
 100 735 145 780 200 780 c 0
 255 780 300 735 300 680 c 0
 300 625 255 580 200 580 c 0
 145 580 100 625 100 680 c 0
EndSplineSet
EndChar

StartChar: mu
Encoding: 181 181 120
Width: 635
VWidth: 0
Flags: HMW
LayerCount: 2
Fore
SplineSet
80 220 m 1
 200 220 l 5
 200 -198 l 5
 80 -198 l 1
 80 220 l 1
EndSplineSet
Refer: 40 117 N 1 0 0 1 0 0 2
EndChar

StartChar: grave
Encoding: 96 96 123
Width: 320
VWidth: 0
Flags: HMW
AnchorPoint: "dot" 200 590 basechar 0
LayerCount: 2
Fore
SplineSet
170 590 m 5
 50 730 l 5
 190 730 l 1
 270 590 l 1
 170 590 l 5
EndSplineSet
EndChar

StartChar: acute
Encoding: 180 180 124
Width: 320
VWidth: 0
Flags: HMW
AnchorPoint: "dot" 120 590 basechar 0
LayerCount: 2
Fore
SplineSet
140 590 m 1
 60 590 l 5
 140 730 l 5
 260 730 l 1
 140 590 l 1
EndSplineSet
EndChar

StartChar: logicalnot
Encoding: 172 172 126
Width: 540
VWidth: 0
Flags: HMW
LayerCount: 2
Fore
SplineSet
405 455 m 5
 475 455 l 5
 475 275 l 1
 405 275 l 1
 405 455 l 5
EndSplineSet
Refer: 78 45 N 1.13333 0 0 1 -8.66667 100 2
EndChar

StartChar: macron
Encoding: 175 175 127
Width: 300
VWidth: 0
Flags: HMW
LayerCount: 2
Fore
SplineSet
-2 800 m 1
 302 800 l 5
 302 720 l 5
 -2 720 l 1
 -2 800 l 1
EndSplineSet
EndChar

StartChar: paragraph
Encoding: 182 182 130
Width: 600
VWidth: 0
Flags: HMW
LayerCount: 2
Fore
SplineSet
445 700 m 1
 445 656 l 1
 353 656 l 1
 353 700 l 1
 445 700 l 1
525 700 m 1
 525 0 l 1
 445 0 l 1
 445 700 l 1
 525 700 l 1
375 700 m 1
 375 0 l 1
 295 0 l 1
 295 700 l 1
 375 700 l 1
295 260 m 1
 196 260 75 351 75 480 c 0
 75 609 196 700 295 700 c 1
 295 520 295 440 295 260 c 1
EndSplineSet
EndChar

StartChar: cedilla
Encoding: 184 184 131
Width: 320
VWidth: 0
Flags: HMW
AnchorPoint: "ced" 146 -1 basechar 0
LayerCount: 2
Fore
SplineSet
84 30 m 1
 124 30 l 1
 174 -4 249 -44 249 -112 c 0
 249 -169 227 -204 150 -204 c 4
 103 -204 75 -180 54 -165 c 1
 76 -95 l 1
 92 -108 113 -120 133 -120 c 0
 159 -120 168 -109 168 -89 c 0
 168 -64 131 -9 84 30 c 1
EndSplineSet
EndChar

StartChar: dotlessi
Encoding: 305 305 225
Width: 270
VWidth: 0
Flags: HMW
AnchorPoint: "ced" 135 0 basechar 0
LayerCount: 2
Fore
SplineSet
70 520 m 1
 200 520 l 5
 200 0 l 5
 70 0 l 1
 70 520 l 1
EndSplineSet
EndChar

StartChar: uni0237
Encoding: 567 567 349
Width: 270
VWidth: 0
Flags: HMW
LayerCount: 2
Fore
SplineSet
74 520 m 1
 204 520 l 1
 204 -60 l 1
 74 -33 l 5
 74 520 l 1
33 -88 m 5
 44 -210 l 1
 -13 -210 -63 -194 -90 -160 c 1
 -52 -54 l 5
 -35 -73 -10 -88 33 -88 c 5
74 -33 m 5
 204 -60 l 1
 204 -139 143 -210 44 -210 c 1
 33 -88 l 5
 70 -88 74 -73 74 -33 c 5
EndSplineSet
EndChar

StartChar: kgreenlandic
Encoding: 312 312 573
Width: 590
VWidth: 0
Flags: HMW
AnchorPoint: "dot" 325 673 basechar 0
AnchorPoint: "ced" 515 0 basechar 0
LayerCount: 2
Fore
SplineSet
245 291 m 1
 345 305 l 5
 565 0 l 5
 455 0 l 1
 245 291 l 1
430 520 m 1
 545 520 l 5
 185 110 l 5
 110 154 l 1
 430 520 l 1
85 520 m 1
 185 520 l 5
 185 0 l 5
 85 0 l 1
 85 520 l 1
EndSplineSet
EndChar

StartChar: ogonek
Encoding: 731 731 574
Width: 320
VWidth: 0
Flags: HMW
AnchorPoint: "ced" 149 0 basechar 0
LayerCount: 2
Fore
SplineSet
209 30 m 1
 162 -9 115 -64 115 -89 c 0
 115 -111 129 -120 160 -120 c 0
 190 -120 199 -113 217 -100 c 5
 239 -165 l 1
 218 -180 190 -204 143 -204 c 0
 76 -204 34 -169 34 -112 c 0
 34 -54 119 -4 169 30 c 1
 209 30 l 1
EndSplineSet
EndChar

StartChar: AE
Encoding: 198 198 582
Width: 1090
VWidth: 0
Flags: HMW
LayerCount: 2
Fore
SplineSet
440 700 m 1
 565 700 l 1
 560 570 l 1
 440 570 l 1
 440 700 l 1
204 270 m 5
 596 270 l 5
 596 145 l 1
 204 145 l 1
 204 270 l 5
440 700 m 1
 565 690 l 1
 175 0 l 1
 40 0 l 1
 440 700 l 1
EndSplineSet
Refer: 0 69 N 1 0 0 1 430 0 2
EndChar

StartChar: fi
Encoding: 64257 64257 585
Width: 405
VWidth: 0
Flags: HMW
AnchorPoint: "ced" 170 0 basechar 0
LayerCount: 2
Fore
SplineSet
10 520 m 5
 363 520 l 1
 363 405 l 1
 10 405 l 5
 10 520 l 5
235 570 m 1
 235 0 l 1
 100 0 l 1
 100 590 l 1
 235 570 l 1
235 570 m 1
 100 590 l 1
 100 669 178 740 267 740 c 1
 283 615 l 1
 248 615 235 599 235 570 c 1
283 615 m 1
 267 740 l 1
 294.815429688 740 329.208984375 735.572265625 350 717.98046875 c 1
 350 597 l 1
 338 605 312 615 283 615 c 1
EndSplineSet
EndChar
